<svg viewBox="0 0 600 400" xmlns="http://www.w3.org/2000/svg">
<g transform="translate(72, 364)">
<g>
<g>
<path d="M0,-329.27234 L0,-329.27234 L4.848485,-334.68423 L9.69697,-340 L14.545455,-324.188 L19.39394,-312.41647 L24.242424,-317.7907 L29.09091,-311.31168 L33.939392,-311.9884 L38.78788,-309.58105 L43.636364,-304.06735 L48.484848,-301.75076 L53.333332,-291.15082 L58.18182,-286.98312 L63.030304,-276.38596 L67.878784,-269.71747 L72.72727,-261.1876 L77.57576,-251.7216 L82.42424,-244.4338 L87.27273,-233.49368 L92.121216,-225.74228 L96.969696,-215.07944 L101.818184,-205.87186 L106.666664,-196.07664 L111.51515,-185.6385 L116.36364,-176.2498 L121.21212,-165.46219 L126.06061,-155.85602 L130.90909,-145.41595 L135.75757,-135.43614 L140.60606,-125.52993 L145.45454,-115.48232 L150.30302,-106.00848 L155.15152,-96.31774 L160,-87.21788 L164.84848,-78.17255 L169.69698,-69.55427 L174.54546,-61.28652 L179.39394,-53.35192 L184.24243,-45.93567 L189.09091,-38.878616 L193.93939,-32.401634 L198.78787,-26.369019 L203.63637,-20.942017 L208.48485,-16.04617 L213.33333,-11.784291 L218.18182,-8.122132 L223.0303,-5.1302757 L227.87878,-2.7893443 L232.72728,-1.1556156 L237.57576,-0.20960559 L242.42424,-0 L247.27272,-0.49917993 L252.12122,-1.7479117 L256.9697,-3.7047598 L261.81818,-6.3974814 L266.66666,-9.765893 L271.51514,-13.8164 L276.36365,-18.467354 L281.21213,-23.696344 L286.0606,-29.404047 L290.9091,-35.540848 L295.75757,-42.00545 L300.60605,-48.740097 L305.45456,-55.670315 L310.30304,-62.764854 L315.15152,-70.007126 L320,-77.42238 L324.84848,-85.061615 L329.69696,-93.003 L334.54544,-101.334564 L339.39395,-110.14155 L344.24243,-119.48874 L349.0909,-129.40823 L353.9394,-139.89026 L358.78787,-150.88112 L363.63635,-162.28645 L368.48486,-173.97943 L373.33334,-185.81174 L378.18182,-197.62552 L383.0303,-209.26462 L387.87878,-220.58408 L392.72726,-231.45694 L397.57574,-241.77881 L402.42426,-251.46964 L407.27274,-260.4739 L412.12122,-268.7591 L416.9697,-276.31314 L421.81818,-283.14148 L426.66666,-289.26382 L431.51514,-294.71085 L436.36365,-299.5213 L441.21213,-303.73926 L446.0606,-307.41196 L450.9091,-310.5879 L455.75757,-313.31525 L460.60605,-315.64087 L465.45456,-317.60947 L470.30304,-319.26288 L475.15152,-320.63995 L480,-321.77618" fill="none" stroke="red" stroke-linejoin="round" stroke-width="2"/>
</g>
</g>
<g>
<g>
<line stroke="black" stroke-width="1" x1="0" x2="0" y1="0" y2="10"/>
<line stroke="black" stroke-width="1" x1="154.33206602850478" x2="154.33206602850478" y1="0" y2="10"/>
<line stroke="black" stroke-width="1" x1="308.66413205700957" x2="308.66413205700957" y1="0" y2="10"/>
<line stroke="black" stroke-width="1" x1="462.9961980855144" x2="462.9961980855144" y1="0" y2="10"/>
</g>
<line stroke="black" stroke-width="1" x1="0" x2="480" y1="0" y2="0"/>
<g>
<text font-size="12" text-anchor="middle" x="0" y="20">
0
</text>
<text font-size="12" text-anchor="middle" x="154.33206602850478" y="20">
2
</text>
<text font-size="12" text-anchor="middle" x="308.66413205700957" y="20">
4
</text>
<text font-size="12" text-anchor="middle" x="462.9961980855144" y="20">
6
</text>
</g>
<text font-size="12" text-anchor="middle" x="240" y="30">

</text>
</g>
<g>
<g>
<line stroke="black" stroke-width="1" x1="0" x2="-10" y1="-1.323933868492612" y2="-1.323933868492612"/>
<line stroke="black" stroke-width="1" x1="0" x2="-10" y1="-83.29943333472006" y2="-83.29943333472006"/>
<line stroke="black" stroke-width="1" x1="0" x2="-10" y1="-165.2749328009475" y2="-165.2749328009475"/>
<line stroke="black" stroke-width="1" x1="0" x2="-10" y1="-247.25043226717494" y2="-247.25043226717494"/>
<line stroke="black" stroke-width="1" x1="0" x2="-10" y1="-329.2259317334024" y2="-329.2259317334024"/>
</g>
<line stroke="black" stroke-width="1" x1="0" x2="0" y1="0" y2="-340"/>
<g>
<text dominant-baseline="middle" font-size="12" text-anchor="end" x="-15" y="-1.323933868492612">
-1
</text>
<text dominant-baseline="middle" font-size="12" text-anchor="end" x="-15" y="-83.29943333472006">
-0.5
</text>
<text dominant-baseline="middle" font-size="12" text-anchor="end" x="-15" y="-165.2749328009475">
0
</text>
<text dominant-baseline="middle" font-size="12" text-anchor="end" x="-15" y="-247.25043226717494">
0.5
</text>
<text dominant-baseline="middle" font-size="12" text-anchor="end" x="-15" y="-329.2259317334024">
1
</text>
</g>
<text font-size="12" text-anchor="middle" transform="rotate(-90 -48 -170)" x="-48" y="-182">

</text>
</g>
</g>
</svg>