<svg viewBox="0 0 600 400" xmlns="http://www.w3.org/2000/svg">
<g transform="translate(72, 364)">
<g>
<g>
<path d="M0,-333.90018 L0,-333.90018 L4.848485,-336.24637 L9.69697,-331.54807 L14.545455,-330.56543 L19.39394,-330.9873 L24.242424,-329.27426 L29.09091,-324.95142 L33.939392,-319.36725 L38.78788,-313.43158 L43.636364,-307.3637 L48.484848,-301.073 L53.333332,-294.45853 L58.18182,-287.4869 L63.030304,-280.16327 L67.878784,-272.49686 L72.72727,-264.49033 L77.57576,-256.1438 L82.42424,-247.46046 L87.27273,-238.44862 L92.121216,-229.12166 L96.969696,-219.49759 L101.818184,-209.59918 L106.666664,-199.45448 L111.51515,-189.09697 L116.36364,-178.56563 L121.21212,-167.9046 L126.06061,-157.1628 L130.90909,-146.3932 L135.75757,-135.6521 L140.60606,-124.99807 L145.45454,-114.49086 L150.30302,-104.19017 L155.15152,-94.15446 L160,-84.439766 L164.84848,-75.098656 L169.69698,-66.17932 L174.54546,-57.72493 L179.39394,-49.77312 L184.24243,-42.35582 L189.09091,-35.499218 L193.93939,-29.22398 L198.78787,-23.545584 L203.63637,-18.474813 L208.48485,-14.018329 L213.33333,-10.179273 L218.18182,-6.9579105 L223.0303,-4.3522563 L227.87878,-2.3586643 L232.72728,-0.97237706 L237.57576,-0.18801591 L242.42424,-0 L247.27272,-0.40289077 L252.12122,-1.391654 L256.9697,-2.9618344 L261.81818,-5.1096373 L266.66666,-7.831912 L271.51514,-11.126037 L276.36365,-14.9896965 L281.21213,-19.420557 L286.0606,-24.415836 L290.9091,-29.971775 L295.75757,-36.08302 L300.60605,-42.741943 L305.45456,-49.937897 L310.30304,-57.656483 L315.15152,-65.8788 L320,-74.580795 L324.84848,-83.73271 L329.69696,-93.2987 L334.54544,-103.23668 L339.39395,-113.498375 L344.24243,-124.02976 L349.0909,-134.77168 L353.9394,-145.66087 L358.78787,-156.63121 L363.63635,-167.6152 L368.48486,-178.54564 L373.33334,-189.35725 L378.18182,-199.98843 L383.0303,-210.38264 L387.87878,-220.48976 L392.72726,-230.26694 L397.57574,-239.67914 L402.42426,-248.69942 L407.27274,-257.3087 L412.12122,-265.49524 L416.9697,-273.2541 L421.81818,-280.58624 L426.66666,-287.4976 L431.51514,-293.9981 L436.36365,-300.10098 L441.21213,-305.82172 L446.0606,-311.17752 L450.9091,-316.18655 L455.75757,-320.8676 L460.60605,-325.23947 L465.45456,-329.3208 L470.30304,-333.12976 L475.15152,-336.6839 L480,-340" fill="none" stroke="red" stroke-linejoin="round" stroke-width="2"/>
</g>
</g>
<g>
<g>
<line stroke="black" stroke-width="1" x1="0" x2="0" y1="0" y2="10"/>
<line stroke="black" stroke-width="1" x1="154.33206602850456" x2="154.33206602850456" y1="0" y2="10"/>
<line stroke="black" stroke-width="1" x1="308.6641320570091" x2="308.6641320570091" y1="0" y2="10"/>
<line stroke="black" stroke-width="1" x1="462.9961980855137" x2="462.9961980855137" y1="0" y2="10"/>
</g>
<line stroke="black" stroke-width="1" x1="0" x2="480" y1="0" y2="0"/>
<g>
<text font-size="12" text-anchor="middle" x="0" y="20">
0
</text>
<text font-size="12" text-anchor="middle" x="154.33206602850456" y="20">
2
</text>
<text font-size="12" text-anchor="middle" x="308.6641320570091" y="20">
4
</text>
<text font-size="12" text-anchor="middle" x="462.9961980855137" y="20">
6
</text>
</g>
<text font-size="12" text-anchor="middle" x="240" y="30">

</text>
</g>
<g>
<g>
<line stroke="black" stroke-width="1" x1="0" x2="-10" y1="-31.93175889347975" y2="-31.93175889347975"/>
<line stroke="black" stroke-width="1" x1="0" x2="-10" y1="-99.22743120858323" y2="-99.22743120858323"/>
<line stroke="black" stroke-width="1" x1="0" x2="-10" y1="-166.5231035236867" y2="-166.5231035236867"/>
<line stroke="black" stroke-width="1" x1="0" x2="-10" y1="-233.81877583879017" y2="-233.81877583879017"/>
<line stroke="black" stroke-width="1" x1="0" x2="-10" y1="-301.11444815389365" y2="-301.11444815389365"/>
</g>
<line stroke="black" stroke-width="1" x1="0" x2="0" y1="0" y2="-340"/>
<g>
<text dominant-baseline="middle" font-size="12" text-anchor="end" x="-15" y="-31.93175889347975">
-0.8
</text>
<text dominant-baseline="middle" font-size="12" text-anchor="end" x="-15" y="-99.22743120858323">
-0.4
</text>
<text dominant-baseline="middle" font-size="12" text-anchor="end" x="-15" y="-166.5231035236867">
0
</text>
<text dominant-baseline="middle" font-size="12" text-anchor="end" x="-15" y="-233.81877583879017">
0.4
</text>
<text dominant-baseline="middle" font-size="12" text-anchor="end" x="-15" y="-301.11444815389365">
0.8
</text>
</g>
<text font-size="12" text-anchor="middle" transform="rotate(-90 -48 -170)" x="-48" y="-182">

</text>
</g>
</g>
</svg>