<svg viewBox="0 0 600 400" xmlns="http://www.w3.org/2000/svg">
<g transform="translate(72, 364)">
<g>
<g>
<path d="M0,-332.9759 L0,-332.9759 L4.8,-332.64832 L9.6,-331.66687 L14.4,-330.03543 L19.2,-327.76044 L24,-324.85086 L28.8,-321.3182 L33.6,-317.1764 L38.4,-312.44174 L43.2,-307.133 L48,-301.2711 L52.8,-294.87915 L57.6,-287.9824 L62.4,-280.60803 L67.2,-272.78522 L72,-264.54477 L76.8,-255.9192 L81.6,-246.94261 L86.4,-237.65039 L91.2,-228.07922 L96,-218.26686 L100.8,-208.25206 L105.6,-198.07431 L110.4,-187.7738 L115.2,-177.39119 L120,-166.96742 L124.8,-156.54367 L129.6,-146.16104 L134.4,-135.86053 L139.2,-125.6828 L144,-115.66799 L148.8,-105.85564 L153.6,-96.28446 L158.4,-86.99223 L163.2,-78.01564 L168,-69.3901 L172.8,-61.149647 L177.6,-53.32681 L182.4,-45.95246 L187.2,-39.055702 L192,-32.663754 L196.8,-26.801842 L201.6,-21.493097 L206.4,-16.758474 L211.2,-12.616656 L216,-9.083991 L220.8,-6.17442 L225.6,-3.8994253 L230.4,-2.267985 L235.2,-1.2865386 L240,-0.9589588 L244.8,-1.2865386 L249.6,-2.267985 L254.4,-3.8994253 L259.2,-6.17442 L264,-9.083991 L268.8,-12.616656 L273.6,-16.758474 L278.4,-21.493097 L283.2,-26.801842 L288,-32.663754 L292.8,-39.055702 L297.6,-45.95246 L302.4,-53.32681 L307.2,-61.149647 L312,-69.3901 L316.8,-78.01564 L321.6,-86.99223 L326.4,-96.28446 L331.2,-105.85564 L336,-115.66799 L340.8,-125.6828 L345.6,-135.86053 L350.4,-146.16104 L355.2,-156.54367 L360,-166.96742 L364.8,-177.39119 L369.6,-187.7738 L374.4,-198.07431 L379.2,-208.25206 L384,-218.26686 L388.8,-228.07922 L393.6,-237.65039 L398.4,-246.94261 L403.2,-255.9192 L408,-264.54477 L412.8,-272.78522 L417.6,-280.60803 L422.4,-287.9824 L427.2,-294.87915 L432,-301.2711 L436.8,-307.133 L441.6,-312.44174 L446.4,-317.1764 L451.2,-321.3182 L456,-324.85086 L460.8,-327.76044 L465.6,-330.03543 L470.4,-331.66687 L475.2,-332.64832" fill="none" stroke="blue" stroke-linejoin="round" stroke-width="2"/>
</g>
</g>
<g transform="translate(380, -340)">
<text font-size="12" text-anchor="start" x="0" y="0">
Ground Truth
</text>
<line stroke="blue" stroke-width="2" x1="-10" x2="-3" y1="-4" y2="-4"/>
</g>
<g>
<g>
<path d="M0,-331.98563 L0,-331.98563 L4.848485,-332.40732 L9.69697,-338.68314 L14.545455,-337.95895 L19.39394,-334.33078 L24.242424,-329.44928 L29.09091,-323.9507 L33.939392,-318.07162 L38.78788,-311.8942 L43.636364,-305.44583 L48.484848,-298.73236 L53.333332,-291.752 L58.18182,-284.50058 L63.030304,-276.97354 L67.878784,-269.1674 L72.72727,-261.08002 L77.57576,-252.71146 L82.42424,-244.06412 L87.27273,-235.14339 L92.121216,-225.95796 L96.969696,-216.52028 L101.818184,-206.84695 L106.666664,-196.959 L111.51515,-186.88219 L116.36364,-176.64703 L121.21212,-166.28893 L126.06061,-155.84784 L130.90909,-145.36809 L135.75757,-134.89777 L140.60606,-124.48803 L145.45454,-114.19235 L150.30302,-104.06551 L155.15152,-94.16265 L160,-84.538185 L164.84848,-75.24489 L169.69698,-66.33295 L174.54546,-57.84923 L179.39394,-49.836636 L184.24243,-42.333694 L189.09091,-35.374283 L193.93939,-28.987556 L198.78787,-23.19801 L203.63637,-18.025663 L208.48485,-13.486365 L213.33333,-9.592139 L218.18182,-6.351579 L223.0303,-3.7702541 L227.87878,-1.8511001 L232.72728,-0.59477955 L237.57576,-0 L242.42424,-0.06377736 L247.27272,-0.7816403 L252.12122,-2.1477726 L256.9697,-4.155092 L261.81818,-6.795271 L266.66666,-10.058698 L271.51514,-13.934386 L276.36365,-18.409842 L281.21213,-23.470886 L286.0606,-29.10146 L290.9091,-35.283394 L295.75757,-41.99619 L300.60605,-49.216785 L305.45456,-56.91938 L310.30304,-65.07523 L315.15152,-73.652565 L320,-82.616516 L324.84848,-91.929146 L329.69696,-101.54958 L334.54544,-111.434235 L339.39395,-121.53709 L344.24243,-131.81017 L349.0909,-142.20403 L353.9394,-152.6684 L358.78787,-163.15277 L363.63635,-173.60721 L368.48486,-183.98299 L373.33334,-194.23338 L378.18182,-204.31421 L383.0303,-214.18456 L387.87878,-223.80719 L392.72726,-233.14896 L397.57574,-242.18114 L402.42426,-250.87949 L407.27274,-259.22437 L412.12122,-267.20062 L416.9697,-274.79742 L421.81818,-282.0081 L426.66666,-288.8296 L431.51514,-295.26242 L436.36365,-301.3101 L441.21213,-306.97873 L446.0606,-312.2768 L450.9091,-317.2145 L455.75757,-321.80368 L460.60605,-326.05728 L465.45456,-329.98914 L470.30304,-333.61365 L475.15152,-336.94562 L480,-340" fill="none" stroke="red" stroke-linejoin="round" stroke-width="2"/>
</g>
</g>
<g transform="translate(380, -322)">
<text font-size="12" text-anchor="start" x="0" y="0">
Prediction
</text>
<line stroke="red" stroke-width="2" x1="-10" x2="-3" y1="-4" y2="-4"/>
</g>
<g>
<g>
<line stroke="black" stroke-width="1" x1="0" x2="0" y1="0" y2="10"/>
<line stroke="black" stroke-width="1" x1="152.78874536821954" x2="152.78874536821954" y1="0" y2="10"/>
<line stroke="black" stroke-width="1" x1="305.5774907364391" x2="305.5774907364391" y1="0" y2="10"/>
<line stroke="black" stroke-width="1" x1="458.3662361046586" x2="458.3662361046586" y1="0" y2="10"/>
</g>
<line stroke="black" stroke-width="1" x1="0" x2="480" y1="0" y2="0"/>
<g>
<text font-size="12" text-anchor="middle" x="0" y="20">
0
</text>
<text font-size="12" text-anchor="middle" x="152.78874536821954" y="20">
2
</text>
<text font-size="12" text-anchor="middle" x="305.5774907364391" y="20">
4
</text>
<text font-size="12" text-anchor="middle" x="458.3662361046586" y="20">
6
</text>
</g>
<text font-size="12" text-anchor="middle" x="240" y="30">
x (radians)
</text>
</g>
<g>
<g>
<line stroke="black" stroke-width="1" x1="0" x2="-10" y1="-0.9589588039613799" y2="-0.9589588039613799"/>
<line stroke="black" stroke-width="1" x1="0" x2="-10" y1="-83.96319218225447" y2="-83.96319218225447"/>
<line stroke="black" stroke-width="1" x1="0" x2="-10" y1="-166.96742556054758" y2="-166.96742556054758"/>
<line stroke="black" stroke-width="1" x1="0" x2="-10" y1="-249.97165893884068" y2="-249.97165893884068"/>
<line stroke="black" stroke-width="1" x1="0" x2="-10" y1="-332.97589231713374" y2="-332.97589231713374"/>
</g>
<line stroke="black" stroke-width="1" x1="0" x2="0" y1="0" y2="-340"/>
<g>
<text dominant-baseline="middle" font-size="12" text-anchor="end" x="-15" y="-0.9589588039613799">
-1
</text>
<text dominant-baseline="middle" font-size="12" text-anchor="end" x="-15" y="-83.96319218225447">
-0.5
</text>
<text dominant-baseline="middle" font-size="12" text-anchor="end" x="-15" y="-166.96742556054758">
0
</text>
<text dominant-baseline="middle" font-size="12" text-anchor="end" x="-15" y="-249.97165893884068">
0.5
</text>
<text dominant-baseline="middle" font-size="12" text-anchor="end" x="-15" y="-332.97589231713374">
1
</text>
</g>
<text font-size="12" text-anchor="middle" transform="rotate(-90 -48 -170)" x="-48" y="-182">
y = cos(x)
</text>
</g>
</g>
</svg>