<svg viewBox="0 0 600 400" xmlns="http://www.w3.org/2000/svg">
<g transform="translate(72, 364)">
<g>
<g>
<path d="M0,-334.3333 L0,-334.3333 L4.8,-334.00345 L9.6,-333.01517 L14.4,-331.37234 L19.2,-329.08148 L24,-326.1516 L28.8,-322.5943 L33.6,-318.42358 L38.4,-313.6559 L43.2,-308.31015 L48,-302.40732 L52.8,-295.9708 L57.6,-289.0259 L62.4,-281.6001 L67.2,-273.7227 L72,-265.42474 L76.8,-256.73904 L81.6,-247.69981 L86.4,-238.34276 L91.2,-228.7048 L96,-218.82399 L100.8,-208.73932 L105.6,-198.49057 L110.4,-188.1182 L115.2,-177.66315 L120,-167.16666 L124.8,-156.67018 L129.6,-146.21512 L134.4,-135.84274 L139.2,-125.594 L144,-115.50932 L148.8,-105.62851 L153.6,-95.990555 L158.4,-86.63351 L163.2,-77.594284 L168,-68.90856 L172.8,-60.61062 L177.6,-52.733208 L182.4,-45.307407 L187.2,-38.362534 L192,-31.925991 L196.8,-26.02318 L201.6,-20.677399 L206.4,-15.909743 L211.2,-11.73903 L216,-8.181719 L220.8,-5.2518477 L225.6,-2.9609811 L230.4,-1.318159 L235.2,-0.32986522 L240,-0 L244.8,-0.32986522 L249.6,-1.318159 L254.4,-2.9609811 L259.2,-5.2518477 L264,-8.181719 L268.8,-11.73903 L273.6,-15.909743 L278.4,-20.677399 L283.2,-26.02318 L288,-31.925991 L292.8,-38.362534 L297.6,-45.307407 L302.4,-52.733208 L307.2,-60.61062 L312,-68.90856 L316.8,-77.594284 L321.6,-86.63351 L326.4,-95.990555 L331.2,-105.62851 L336,-115.50932 L340.8,-125.594 L345.6,-135.84274 L350.4,-146.21512 L355.2,-156.67018 L360,-167.16666 L364.8,-177.66315 L369.6,-188.1182 L374.4,-198.49057 L379.2,-208.73932 L384,-218.82399 L388.8,-228.7048 L393.6,-238.34276 L398.4,-247.69981 L403.2,-256.73904 L408,-265.42474 L412.8,-273.7227 L417.6,-281.6001 L422.4,-289.0259 L427.2,-295.9708 L432,-302.40732 L436.8,-308.31015 L441.6,-313.6559 L446.4,-318.42358 L451.2,-322.5943 L456,-326.1516 L460.8,-329.08148 L465.6,-331.37234 L470.4,-333.01517 L475.2,-334.00345" fill="none" stroke="blue" stroke-linejoin="round" stroke-width="2"/>
</g>
</g>
<g transform="translate(380, -340)">
<text font-size="12" text-anchor="start" x="0" y="0">
Ground Truth
</text>
<line stroke="blue" stroke-width="2" x1="-10" x2="-3" y1="-4" y2="-4"/>
</g>
<g>
<g>
<path d="M0,-333.79776 L0,-333.79776 L4.848485,-340 L9.69697,-336.08145 L14.545455,-333.1599 L19.39394,-329.82144 L24.242424,-325.66653 L29.09091,-320.9422 L33.939392,-315.81873 L38.78788,-310.3701 L43.636364,-304.62097 L48.484848,-298.57407 L53.333332,-292.22296 L58.18182,-285.55746 L63.030304,-278.56635 L67.878784,-271.2385 L72.72727,-263.564 L77.57576,-255.53484 L82.42424,-247.14563 L87.27273,-238.3945 L92.121216,-229.28401 L96.969696,-219.82205 L101.818184,-210.02295 L106.666664,-199.90834 L111.51515,-189.50818 L116.36364,-178.86133 L121.21212,-168.01598 L126.06061,-157.02957 L130.90909,-145.96825 L135.75757,-134.90567 L140.60606,-123.92114 L145.45454,-113.09729 L150.30302,-102.51722 L155.15152,-92.26154 L160,-82.40539 L164.84848,-73.01585 L169.69698,-64.14992 L174.54546,-55.85332 L179.39394,-48.16008 L184.24243,-41.092926 L189.09091,-34.66436 L193.93939,-28.878193 L198.78787,-23.731342 L203.63637,-19.215677 L208.48485,-15.319778 L213.33333,-12.03047 L218.18182,-9.33411 L223.0303,-7.217572 L227.87878,-5.6689816 L232.72728,-4.678206 L237.57576,-4.2371554 L242.42424,-4.339925 L247.27272,-4.9828143 L252.12122,-6.164249 L256.9697,-7.8846216 L261.81818,-10.14606 L266.66666,-12.952129 L271.51514,-16.307465 L276.36365,-20.217333 L281.21213,-24.687105 L286.0606,-29.721657 L290.9091,-35.324665 L295.75757,-41.49781 L300.60605,-48.239906 L305.45456,-55.545933 L310.30304,-63.406048 L315.15152,-71.80458 L320,-80.71908 L324.84848,-90.11947 L329.69696,-99.96746 L334.54544,-110.21619 L339.39395,-120.81032 L344.24243,-131.68652 L349.0909,-142.77455 L353.9394,-153.99866 L358.78787,-165.27959 L363.63635,-176.53679 L368.48486,-187.69086 L373.33334,-198.66599 L378.18182,-209.39209 L383.0303,-219.80678 L387.87878,-229.85669 L392.72726,-239.49834 L397.57574,-248.69844 L402.42426,-257.43375 L407.27274,-265.6904 L412.12122,-273.463 L416.9697,-280.7537 L421.81818,-287.57068 L426.66666,-293.92722 L431.51514,-299.84042 L436.36365,-305.33032 L441.21213,-310.41888 L446.0606,-315.12924 L450.9091,-319.4852 L455.75757,-323.51074 L460.60605,-327.2296 L465.45456,-330.66516 L470.30304,-333.84015 L475.15152,-336.77673 L480,-339.49655" fill="none" stroke="red" stroke-linejoin="round" stroke-width="2"/>
</g>
</g>
<g transform="translate(380, -322)">
<text font-size="12" text-anchor="start" x="0" y="0">
Prediction
</text>
<line stroke="red" stroke-width="2" x1="-10" x2="-3" y1="-4" y2="-4"/>
</g>
<g>
<g>
<line stroke="black" stroke-width="1" x1="0" x2="0" y1="0" y2="10"/>
<line stroke="black" stroke-width="1" x1="152.78874536821954" x2="152.78874536821954" y1="0" y2="10"/>
<line stroke="black" stroke-width="1" x1="305.5774907364391" x2="305.5774907364391" y1="0" y2="10"/>
<line stroke="black" stroke-width="1" x1="458.3662361046586" x2="458.3662361046586" y1="0" y2="10"/>
</g>
<line stroke="black" stroke-width="1" x1="0" x2="480" y1="0" y2="0"/>
<g>
<text font-size="12" text-anchor="middle" x="0" y="20">
0
</text>
<text font-size="12" text-anchor="middle" x="152.78874536821954" y="20">
2
</text>
<text font-size="12" text-anchor="middle" x="305.5774907364391" y="20">
4
</text>
<text font-size="12" text-anchor="middle" x="458.3662361046586" y="20">
6
</text>
</g>
<text font-size="12" text-anchor="middle" x="240" y="30">
x (radians)
</text>
</g>
<g>
<g>
<line stroke="black" stroke-width="1" x1="0" x2="-10" y1="-0" y2="-0"/>
<line stroke="black" stroke-width="1" x1="0" x2="-10" y1="-83.58332903476631" y2="-83.58332903476631"/>
<line stroke="black" stroke-width="1" x1="0" x2="-10" y1="-167.16665806953262" y2="-167.16665806953262"/>
<line stroke="black" stroke-width="1" x1="0" x2="-10" y1="-250.74998710429892" y2="-250.74998710429892"/>
<line stroke="black" stroke-width="1" x1="0" x2="-10" y1="-334.33331613906523" y2="-334.33331613906523"/>
</g>
<line stroke="black" stroke-width="1" x1="0" x2="0" y1="0" y2="-340"/>
<g>
<text dominant-baseline="middle" font-size="12" text-anchor="end" x="-15" y="-0">
-1
</text>
<text dominant-baseline="middle" font-size="12" text-anchor="end" x="-15" y="-83.58332903476631">
-0.5
</text>
<text dominant-baseline="middle" font-size="12" text-anchor="end" x="-15" y="-167.16665806953262">
0
</text>
<text dominant-baseline="middle" font-size="12" text-anchor="end" x="-15" y="-250.74998710429892">
0.5
</text>
<text dominant-baseline="middle" font-size="12" text-anchor="end" x="-15" y="-334.33331613906523">
1
</text>
</g>
<text font-size="12" text-anchor="middle" transform="rotate(-90 -48 -170)" x="-48" y="-182">
y = cos(x)
</text>
</g>
</g>
</svg>