<svg viewBox="0 0 600 400" xmlns="http://www.w3.org/2000/svg">
<g transform="translate(72, 364)">
<g>
<g>
<path d="M0,-336.78323 L0,-336.78323 L4.848485,-331.45734 L9.69697,-334.15988 L14.545455,-334.1121 L19.39394,-331.5901 L24.242424,-329.44476 L29.09091,-324.56287 L33.939392,-320.56873 L38.78788,-316.63525 L43.636364,-313.1947 L48.484848,-304.87988 L53.333332,-303.37595 L58.18182,-288.84164 L63.030304,-284.58676 L67.878784,-273.32056 L72.72727,-267.02167 L77.57576,-260.74197 L82.42424,-246.96492 L87.27273,-242.2991 L92.121216,-229.45013 L96.969696,-221.7246 L101.818184,-210.34167 L106.666664,-200.63586 L111.51515,-189.55876 L116.36364,-179.05931 L121.21212,-168.15787 L126.06061,-157.48975 L130.90909,-146.84286 L135.75757,-136.39986 L140.60606,-126.1392 L145.45454,-116.11523 L150.30302,-106.33581 L155.15152,-96.81971 L160,-87.57777 L164.84848,-78.62503 L169.69698,-69.98001 L174.54546,-61.667603 L179.39394,-53.719147 L184.24243,-46.171936 L189.09091,-39.067497 L193.93939,-32.449272 L198.78787,-26.360027 L203.63637,-20.839437 L208.48485,-15.9221945 L213.33333,-11.636802 L218.18182,-8.005103 L223.0303,-5.042428 L227.87878,-2.758199 L232.72728,-1.1567808 L237.57576,-0.23840252 L242.42424,-0 L247.27272,-0.43589547 L252.12122,-1.5382673 L256.9697,-3.2974107 L261.81818,-5.7018213 L266.66666,-8.738149 L271.51514,-12.391085 L276.36365,-16.643255 L281.21213,-21.475164 L286.0606,-26.865248 L290.9091,-32.79007 L295.75757,-39.224644 L300.60605,-46.142895 L305.45456,-53.518173 L310.30304,-61.323776 L315.15152,-69.53341 L320,-78.12143 L324.84848,-87.06292 L329.69696,-96.33337 L334.54544,-105.908134 L339.39395,-115.76154 L344.24243,-125.865845 L349.0909,-136.19003 L353.9394,-146.69873 L358.78787,-157.35133 L363.63635,-168.10141 L368.48486,-178.89684 L373.33334,-189.68024 L378.18182,-200.3902 L383.0303,-210.9629 L387.87878,-221.33423 L392.72726,-231.44197 L397.57574,-241.22804 L402.42426,-250.64061 L407.27274,-259.63565 L412.12122,-268.1782 L416.9697,-276.24283 L421.81818,-283.81387 L426.66666,-290.88498 L431.51514,-297.45822 L436.36365,-303.54312 L441.21213,-309.1553 L446.0606,-314.31534 L450.9091,-319.04745 L455.75757,-323.3783 L460.60605,-327.33585 L465.45456,-330.9488 L470.30304,-334.2455 L475.15152,-337.25375 L480,-340" fill="none" stroke="red" stroke-linejoin="round" stroke-width="2"/>
</g>
</g>
<g>
<g>
<line stroke="black" stroke-width="1" x1="0" x2="0" y1="0" y2="10"/>
<line stroke="black" stroke-width="1" x1="154.33206602850478" x2="154.33206602850478" y1="0" y2="10"/>
<line stroke="black" stroke-width="1" x1="308.66413205700957" x2="308.66413205700957" y1="0" y2="10"/>
<line stroke="black" stroke-width="1" x1="462.9961980855144" x2="462.9961980855144" y1="0" y2="10"/>
</g>
<line stroke="black" stroke-width="1" x1="0" x2="480" y1="0" y2="0"/>
<g>
<text font-size="12" text-anchor="middle" x="0" y="20">
0
</text>
<text font-size="12" text-anchor="middle" x="154.33206602850478" y="20">
2
</text>
<text font-size="12" text-anchor="middle" x="308.66413205700957" y="20">
4
</text>
<text font-size="12" text-anchor="middle" x="462.9961980855144" y="20">
6
</text>
</g>
<text font-size="12" text-anchor="middle" x="240" y="30">

</text>
</g>
<g>
<g>
<line stroke="black" stroke-width="1" x1="0" x2="-10" y1="-0.17524436655312667" y2="-0.17524436655312667"/>
<line stroke="black" stroke-width="1" x1="0" x2="-10" y1="-84.32736569239245" y2="-84.32736569239245"/>
<line stroke="black" stroke-width="1" x1="0" x2="-10" y1="-168.47948701823177" y2="-168.47948701823177"/>
<line stroke="black" stroke-width="1" x1="0" x2="-10" y1="-252.63160834407108" y2="-252.63160834407108"/>
<line stroke="black" stroke-width="1" x1="0" x2="-10" y1="-336.78372966991043" y2="-336.78372966991043"/>
</g>
<line stroke="black" stroke-width="1" x1="0" x2="0" y1="0" y2="-340"/>
<g>
<text dominant-baseline="middle" font-size="12" text-anchor="end" x="-15" y="-0.17524436655312667">
-1
</text>
<text dominant-baseline="middle" font-size="12" text-anchor="end" x="-15" y="-84.32736569239245">
-0.5
</text>
<text dominant-baseline="middle" font-size="12" text-anchor="end" x="-15" y="-168.47948701823177">
0
</text>
<text dominant-baseline="middle" font-size="12" text-anchor="end" x="-15" y="-252.63160834407108">
0.5
</text>
<text dominant-baseline="middle" font-size="12" text-anchor="end" x="-15" y="-336.78372966991043">
1
</text>
</g>
<text font-size="12" text-anchor="middle" transform="rotate(-90 -48 -170)" x="-48" y="-182">

</text>
</g>
</g>
</svg>