<svg viewBox="0 0 600 400" xmlns="http://www.w3.org/2000/svg">
<g transform="translate(72, 364)">
<g>
<g>
<path d="M0,-327.73068 L0,-327.73068 L4.848485,-326.24973 L9.69697,-329.60815 L14.545455,-326.43137 L19.39394,-320.66653 L24.242424,-318.82068 L29.09091,-314.57672 L33.939392,-316.5164 L38.78788,-303.69952 L43.636364,-302.67352 L48.484848,-297.95566 L53.333332,-291.611 L58.18182,-276.0081 L63.030304,-266.41132 L67.878784,-257.66397 L72.72727,-257.92825 L77.57576,-255.37645 L82.42424,-253.74634 L87.27273,-243.79568 L92.121216,-232.01476 L96.969696,-214.58386 L101.818184,-201.82771 L106.666664,-189.19739 L111.51515,-181.69789 L116.36364,-172.15404 L121.21212,-164.37376 L126.06061,-153.80609 L130.90909,-144.54755 L135.75757,-133.57402 L140.60606,-123.92649 L145.45454,-113.282104 L150.30302,-103.672264 L155.15152,-93.557625 L160,-84.268265 L164.84848,-74.908455 L169.69698,-66.27636 L174.54546,-57.897617 L179.39394,-50.200157 L184.24243,-42.95162 L189.09091,-36.35109 L193.93939,-30.287231 L198.78787,-24.833708 L203.63637,-19.933146 L208.48485,-15.600885 L213.33333,-11.804853 L218.18182,-8.541873 L223.0303,-5.7972016 L227.87878,-3.5704978 L232.72728,-1.8634863 L237.57576,-0.6873998 L242.42424,-0.058740173 L247.27272,-0 L252.12122,-0.5369697 L256.9697,-1.6970341 L261.81818,-3.5065982 L266.66666,-5.988812 L271.51514,-9.161335 L276.36365,-13.034499 L281.21213,-17.609892 L286.0606,-22.879475 L290.9091,-28.825232 L295.75757,-35.419346 L300.60605,-42.62483 L305.45456,-50.396553 L310.30304,-58.682556 L315.15152,-67.42555 L320,-76.56453 L324.84848,-86.03635 L329.69696,-95.77726 L334.54544,-105.72433 L339.39395,-115.81662 L344.24243,-125.99621 L349.0909,-136.20901 L353.9394,-146.40532 L358.78787,-156.54024 L363.63635,-166.5738 L368.48486,-176.47112 L373.33334,-186.20218 L378.18182,-195.74171 L383.0303,-205.06894 L387.87878,-214.16718 L392.72726,-223.02353 L397.57574,-231.6285 L402.42426,-239.97557 L407.27274,-248.06093 L412.12122,-255.88303 L416.9697,-263.4423 L421.81818,-270.74072 L426.66666,-277.78186 L431.51514,-284.57022 L436.36365,-291.11133 L441.21213,-297.41138 L446.0606,-303.47708 L450.9091,-309.31564 L455.75757,-314.93448 L460.60605,-320.3412 L465.45456,-325.54343 L470.30304,-330.5489 L475.15152,-335.36523 L480,-340" fill="none" stroke="red" stroke-linejoin="round" stroke-width="2"/>
</g>
</g>
<g>
<g>
<line stroke="black" stroke-width="1" x1="0" x2="0" y1="0" y2="10"/>
<line stroke="black" stroke-width="1" x1="154.33206602850478" x2="154.33206602850478" y1="0" y2="10"/>
<line stroke="black" stroke-width="1" x1="308.66413205700957" x2="308.66413205700957" y1="0" y2="10"/>
<line stroke="black" stroke-width="1" x1="462.9961980855144" x2="462.9961980855144" y1="0" y2="10"/>
</g>
<line stroke="black" stroke-width="1" x1="0" x2="480" y1="0" y2="0"/>
<g>
<text font-size="12" text-anchor="middle" x="0" y="20">
0
</text>
<text font-size="12" text-anchor="middle" x="154.33206602850478" y="20">
2
</text>
<text font-size="12" text-anchor="middle" x="308.66413205700957" y="20">
4
</text>
<text font-size="12" text-anchor="middle" x="462.9961980855144" y="20">
6
</text>
</g>
<text font-size="12" text-anchor="middle" x="240" y="30">

</text>
</g>
<g>
<g>
<line stroke="black" stroke-width="1" x1="0" x2="-10" y1="-32.1300573984232" y2="-32.1300573984232"/>
<line stroke="black" stroke-width="1" x1="0" x2="-10" y1="-97.81367482353984" y2="-97.81367482353984"/>
<line stroke="black" stroke-width="1" x1="0" x2="-10" y1="-163.4972922486565" y2="-163.4972922486565"/>
<line stroke="black" stroke-width="1" x1="0" x2="-10" y1="-229.18090967377313" y2="-229.18090967377313"/>
<line stroke="black" stroke-width="1" x1="0" x2="-10" y1="-294.86452709888977" y2="-294.86452709888977"/>
</g>
<line stroke="black" stroke-width="1" x1="0" x2="0" y1="0" y2="-340"/>
<g>
<text dominant-baseline="middle" font-size="12" text-anchor="end" x="-15" y="-32.1300573984232">
-0.8
</text>
<text dominant-baseline="middle" font-size="12" text-anchor="end" x="-15" y="-97.81367482353984">
-0.4
</text>
<text dominant-baseline="middle" font-size="12" text-anchor="end" x="-15" y="-163.4972922486565">
0
</text>
<text dominant-baseline="middle" font-size="12" text-anchor="end" x="-15" y="-229.18090967377313">
0.4
</text>
<text dominant-baseline="middle" font-size="12" text-anchor="end" x="-15" y="-294.86452709888977">
0.8
</text>
</g>
<text font-size="12" text-anchor="middle" transform="rotate(-90 -48 -170)" x="-48" y="-182">

</text>
</g>
</g>
</svg>