<svg viewBox="0 0 600 400" xmlns="http://www.w3.org/2000/svg">
<g transform="translate(72, 364)">
<g>
<g>
<path d="M0,-332.36346 L0,-332.36346 L4.8,-332.03555 L9.6,-331.05307 L14.4,-329.41995 L19.2,-327.14258 L24,-324.22995 L28.8,-320.6936 L33.6,-316.54745 L38.4,-311.8079 L43.2,-306.49362 L48,-300.62558 L52.8,-294.22696 L57.6,-287.323 L62.4,-279.94098 L67.2,-272.10995 L72,-263.8609 L76.8,-255.22636 L81.6,-246.2404 L86.4,-236.93848 L91.2,-227.35732 L96,-217.53471 L100.8,-207.50946 L105.6,-197.32109 L110.4,-187.00983 L115.2,-176.61638 L120,-166.18173 L124.8,-155.7471 L129.6,-145.35364 L134.4,-135.04239 L139.2,-124.85402 L144,-114.82876 L148.8,-105.00616 L153.6,-95.424995 L158.4,-86.12308 L163.2,-77.13711 L168,-68.50256 L172.8,-60.25351 L177.6,-52.42251 L182.4,-45.040462 L187.2,-38.13651 L192,-31.737888 L196.8,-25.869856 L201.6,-20.55557 L206.4,-15.816006 L211.2,-11.669866 L216,-8.133513 L220.8,-5.220905 L225.6,-2.9435353 L230.4,-1.3103926 L235.2,-0.3279217 L240,-0 L244.8,-0.3279217 L249.6,-1.3103926 L254.4,-2.9435353 L259.2,-5.220905 L264,-8.133513 L268.8,-11.669866 L273.6,-15.816006 L278.4,-20.55557 L283.2,-25.869856 L288,-31.737888 L292.8,-38.13651 L297.6,-45.040462 L302.4,-52.42251 L307.2,-60.25351 L312,-68.50256 L316.8,-77.13711 L321.6,-86.12308 L326.4,-95.424995 L331.2,-105.00616 L336,-114.82876 L340.8,-124.85402 L345.6,-135.04239 L350.4,-145.35364 L355.2,-155.7471 L360,-166.18173 L364.8,-176.61638 L369.6,-187.00983 L374.4,-197.32109 L379.2,-207.50946 L384,-217.53471 L388.8,-227.35732 L393.6,-236.93848 L398.4,-246.2404 L403.2,-255.22636 L408,-263.8609 L412.8,-272.10995 L417.6,-279.94098 L422.4,-287.323 L427.2,-294.22696 L432,-300.62558 L436.8,-306.49362 L441.6,-311.8079 L446.4,-316.54745 L451.2,-320.6936 L456,-324.22995 L460.8,-327.14258 L465.6,-329.41995 L470.4,-331.05307 L475.2,-332.03555" fill="none" stroke="blue" stroke-linejoin="round" stroke-width="2"/>
</g>
</g>
<g transform="translate(380, -340)">
<text font-size="12" text-anchor="start" x="0" y="0">
Ground Truth
</text>
<line stroke="blue" stroke-width="2" x1="-10" x2="-3" y1="-4" y2="-4"/>
</g>
<g>
<g>
<path d="M0,-332.6459 L0,-332.6459 L4.848485,-326.1701 L9.69697,-327.72614 L14.545455,-330.56158 L19.39394,-329.906 L24.242424,-325.21124 L29.09091,-319.09857 L33.939392,-313.3824 L38.78788,-308.2171 L43.636364,-303.2104 L48.484848,-298.00958 L53.333332,-292.39175 L58.18182,-286.22897 L63.030304,-279.45386 L67.878784,-272.04205 L72.72727,-264.00497 L77.57576,-255.38597 L82.42424,-246.25525 L87.27273,-236.70116 L92.121216,-226.81883 L96.969696,-216.69801 L101.818184,-206.4134 L106.666664,-196.02019 L111.51515,-185.55527 L116.36364,-175.04355 L121.21212,-164.50653 L126.06061,-153.97066 L130.90909,-143.47282 L135.75757,-133.06195 L140.60606,-122.79655 L145.45454,-112.739365 L150.30302,-102.95071 L155.15152,-93.482414 L160,-84.373825 L164.84848,-75.65035 L169.69698,-67.32479 L174.54546,-59.400547 L179.39394,-51.876205 L184.24243,-44.75042 L189.09091,-38.02653 L193.93939,-31.71643 L198.78787,-25.843231 L203.63637,-20.442457 L208.48485,-15.561511 L213.33333,-11.257162 L218.18182,-7.5910697 L223.0303,-4.6236367 L227.87878,-2.4069457 L232.72728,-0.97799534 L237.57576,-0.3536599 L242.42424,-0.52863324 L247.27272,-1.4769465 L252.12122,-3.1567183 L256.9697,-5.5169234 L261.81818,-8.504532 L266.66666,-12.07052 L271.51514,-16.173834 L276.36365,-20.783112 L281.21213,-25.876514 L286.0606,-31.440323 L290.9091,-37.466858 L295.75757,-43.95227 L300.60605,-50.894375 L305.45456,-58.290745 L310.30304,-66.13698 L315.15152,-74.425186 L320,-83.14267 L324.84848,-92.27075 L329.69696,-101.783844 L334.54544,-111.64877 L339.39395,-121.82446 L344.24243,-132.26201 L349.0909,-142.90521 L353.9394,-153.69164 L358.78787,-164.554 L363.63635,-175.4222 L368.48486,-186.22527 L373.33334,-196.89378 L378.18182,-207.36194 L383.0303,-217.5696 L387.87878,-227.46379 L392.72726,-236.99998 L397.57574,-246.14261 L402.42426,-254.8653 L407.27274,-263.15054 L412.12122,-270.98907 L416.9697,-278.379 L421.81818,-285.3248 L426.66666,-291.83612 L431.51514,-297.9268 L436.36365,-303.61368 L441.21213,-308.91602 L446.0606,-313.85428 L450.9091,-318.4498 L455.75757,-322.72412 L460.60605,-326.69852 L465.45456,-330.39377 L470.30304,-333.82986 L475.15152,-337.02594 L480,-340" fill="none" stroke="red" stroke-linejoin="round" stroke-width="2"/>
</g>
</g>
<g transform="translate(380, -322)">
<text font-size="12" text-anchor="start" x="0" y="0">
Prediction
</text>
<line stroke="red" stroke-width="2" x1="-10" x2="-3" y1="-4" y2="-4"/>
</g>
<g>
<g>
<line stroke="black" stroke-width="1" x1="0" x2="0" y1="0" y2="10"/>
<line stroke="black" stroke-width="1" x1="152.78874536821954" x2="152.78874536821954" y1="0" y2="10"/>
<line stroke="black" stroke-width="1" x1="305.5774907364391" x2="305.5774907364391" y1="0" y2="10"/>
<line stroke="black" stroke-width="1" x1="458.3662361046586" x2="458.3662361046586" y1="0" y2="10"/>
</g>
<line stroke="black" stroke-width="1" x1="0" x2="480" y1="0" y2="0"/>
<g>
<text font-size="12" text-anchor="middle" x="0" y="20">
0
</text>
<text font-size="12" text-anchor="middle" x="152.78874536821954" y="20">
2
</text>
<text font-size="12" text-anchor="middle" x="305.5774907364391" y="20">
4
</text>
<text font-size="12" text-anchor="middle" x="458.3662361046586" y="20">
6
</text>
</g>
<text font-size="12" text-anchor="middle" x="240" y="30">
x (radians)
</text>
</g>
<g>
<g>
<line stroke="black" stroke-width="1" x1="0" x2="-10" y1="-0" y2="-0"/>
<line stroke="black" stroke-width="1" x1="0" x2="-10" y1="-83.09086853063116" y2="-83.09086853063116"/>
<line stroke="black" stroke-width="1" x1="0" x2="-10" y1="-166.1817370612623" y2="-166.1817370612623"/>
<line stroke="black" stroke-width="1" x1="0" x2="-10" y1="-249.27260559189347" y2="-249.27260559189347"/>
<line stroke="black" stroke-width="1" x1="0" x2="-10" y1="-332.3634741225246" y2="-332.3634741225246"/>
</g>
<line stroke="black" stroke-width="1" x1="0" x2="0" y1="0" y2="-340"/>
<g>
<text dominant-baseline="middle" font-size="12" text-anchor="end" x="-15" y="-0">
-1
</text>
<text dominant-baseline="middle" font-size="12" text-anchor="end" x="-15" y="-83.09086853063116">
-0.5
</text>
<text dominant-baseline="middle" font-size="12" text-anchor="end" x="-15" y="-166.1817370612623">
0
</text>
<text dominant-baseline="middle" font-size="12" text-anchor="end" x="-15" y="-249.27260559189347">
0.5
</text>
<text dominant-baseline="middle" font-size="12" text-anchor="end" x="-15" y="-332.3634741225246">
1
</text>
</g>
<text font-size="12" text-anchor="middle" transform="rotate(-90 -48 -170)" x="-48" y="-182">
y = cos(x)
</text>
</g>
</g>
</svg>