<svg viewBox="0 0 600 400" xmlns="http://www.w3.org/2000/svg">
<g transform="translate(72, 364)">
<g>
<g>
<path d="M0,-337.3353 L0,-337.3353 L4.8,-337.00247 L9.6,-336.0053 L14.4,-334.34775 L19.2,-332.0363 L24,-329.0801 L28.8,-325.49088 L33.6,-321.2827 L38.4,-316.47223 L43.2,-311.07846 L48,-305.12265 L52.8,-298.6283 L57.6,-291.62106 L62.4,-284.1286 L67.2,-276.18045 L72,-267.808 L76.8,-259.0443 L81.6,-249.92392 L86.4,-240.48285 L91.2,-230.75836 L96,-220.78882 L100.8,-210.61359 L105.6,-200.27281 L110.4,-189.80731 L115.2,-179.25838 L120,-168.66765 L124.8,-158.07692 L129.6,-147.52798 L134.4,-137.06248 L139.2,-126.72171 L144,-116.54648 L148.8,-106.57695 L153.6,-96.852455 L158.4,-87.41139 L163.2,-78.29101 L168,-69.52729 L172.8,-61.154842 L177.6,-53.2067 L182.4,-45.714226 L187.2,-38.706993 L192,-32.212654 L196.8,-26.256844 L201.6,-20.863062 L206.4,-16.052597 L211.2,-11.844436 L216,-8.255182 L220.8,-5.2990046 L225.6,-2.987568 L230.4,-1.3299948 L235.2,-0.3328271 L240,-0 L244.8,-0.3328271 L249.6,-1.3299948 L254.4,-2.987568 L259.2,-5.2990046 L264,-8.255182 L268.8,-11.844436 L273.6,-16.052597 L278.4,-20.863062 L283.2,-26.256844 L288,-32.212654 L292.8,-38.706993 L297.6,-45.714226 L302.4,-53.2067 L307.2,-61.154842 L312,-69.52729 L316.8,-78.29101 L321.6,-87.41139 L326.4,-96.852455 L331.2,-106.57695 L336,-116.54648 L340.8,-126.72171 L345.6,-137.06248 L350.4,-147.52798 L355.2,-158.07692 L360,-168.66765 L364.8,-179.25838 L369.6,-189.80731 L374.4,-200.27281 L379.2,-210.61359 L384,-220.78882 L388.8,-230.75836 L393.6,-240.48285 L398.4,-249.92392 L403.2,-259.0443 L408,-267.808 L412.8,-276.18045 L417.6,-284.1286 L422.4,-291.62106 L427.2,-298.6283 L432,-305.12265 L436.8,-311.07846 L441.6,-316.47223 L446.4,-321.2827 L451.2,-325.49088 L456,-329.0801 L460.8,-332.0363 L465.6,-334.34775 L470.4,-336.0053 L475.2,-337.00247" fill="none" stroke="blue" stroke-linejoin="round" stroke-width="2"/>
</g>
</g>
<g transform="translate(380, -340)">
<text font-size="12" text-anchor="start" x="0" y="0">
Ground Truth
</text>
<line stroke="blue" stroke-width="2" x1="-10" x2="-3" y1="-4" y2="-4"/>
</g>
<g>
<g>
<path d="M0,-340 L0,-340 L4.848485,-333.93307 L9.69697,-336.3813 L14.545455,-333.884 L19.39394,-331.3247 L24.242424,-328.38925 L29.09091,-324.94864 L33.939392,-320.7271 L38.78788,-315.61356 L43.636364,-309.6284 L48.484848,-302.93448 L53.333332,-295.74667 L58.18182,-288.23828 L63.030304,-280.4993 L67.878784,-272.5487 L72.72727,-264.3657 L77.57576,-255.91621 L82.42424,-247.1694 L87.27273,-238.10501 L92.121216,-228.71635 L96.969696,-219.01039 L101.818184,-209.00682 L106.666664,-198.73659 L111.51515,-188.2401 L116.36364,-177.56541 L121.21212,-166.76625 L126.06061,-155.90016 L130.90909,-145.02678 L135.75757,-134.20619 L140.60606,-123.49781 L145.45454,-112.95934 L150.30302,-102.64628 L155.15152,-92.61162 L160,-82.905846 L164.84848,-73.57707 L169.69698,-64.67118 L174.54546,-56.23197 L179.39394,-48.301014 L184.24243,-40.91735 L189.09091,-34.116863 L193.93939,-27.931396 L198.78787,-22.387732 L203.63637,-17.50652 L208.48485,-13.301396 L213.33333,-9.778465 L218.18182,-6.936279 L223.0303,-4.766439 L227.87878,-3.2547739 L232.72728,-2.3829827 L237.57576,-2.1305466 L242.42424,-2.4766698 L247.27272,-3.4020205 L252.12122,-4.89009 L256.9697,-6.9280667 L261.81818,-9.5071945 L266.66666,-12.622656 L271.51514,-16.273056 L276.36365,-20.45961 L281.21213,-25.185137 L286.0606,-30.452917 L290.9091,-36.265503 L295.75757,-42.62351 L300.60605,-49.524414 L305.45456,-56.961437 L310.30304,-64.922485 L315.15152,-73.389275 L320,-82.33667 L324.84848,-91.73225 L329.69696,-101.53631 L334.54544,-111.70212 L339.39395,-122.17666 L344.24243,-132.9016 L349.0909,-143.81462 L353.9394,-154.85086 L358.78787,-165.9444 L363.63635,-177.02982 L368.48486,-188.04344 L373.33334,-198.92456 L378.18182,-209.61636 L383.0303,-220.06653 L387.87878,-230.22778 L392.72726,-240.058 L397.57574,-249.52017 L402.42426,-258.58234 L407.27274,-267.21713 L412.12122,-275.40137 L416.9697,-283.11563 L421.81818,-290.3437 L426.66666,-297.07217 L431.51514,-303.28998 L436.36365,-308.98804 L441.21213,-314.15906 L446.0606,-318.7973 L450.9091,-322.8987 L455.75757,-326.46075 L460.60605,-329.48294 L465.45456,-331.9668 L470.30304,-333.9166 L475.15152,-335.33963 L480,-336.24673" fill="none" stroke="red" stroke-linejoin="round" stroke-width="2"/>
</g>
</g>
<g transform="translate(380, -322)">
<text font-size="12" text-anchor="start" x="0" y="0">
Prediction
</text>
<line stroke="red" stroke-width="2" x1="-10" x2="-3" y1="-4" y2="-4"/>
</g>
<g>
<g>
<line stroke="black" stroke-width="1" x1="0" x2="0" y1="0" y2="10"/>
<line stroke="black" stroke-width="1" x1="152.78874536821954" x2="152.78874536821954" y1="0" y2="10"/>
<line stroke="black" stroke-width="1" x1="305.5774907364391" x2="305.5774907364391" y1="0" y2="10"/>
<line stroke="black" stroke-width="1" x1="458.3662361046586" x2="458.3662361046586" y1="0" y2="10"/>
</g>
<line stroke="black" stroke-width="1" x1="0" x2="480" y1="0" y2="0"/>
<g>
<text font-size="12" text-anchor="middle" x="0" y="20">
0
</text>
<text font-size="12" text-anchor="middle" x="152.78874536821954" y="20">
2
</text>
<text font-size="12" text-anchor="middle" x="305.5774907364391" y="20">
4
</text>
<text font-size="12" text-anchor="middle" x="458.3662361046586" y="20">
6
</text>
</g>
<text font-size="12" text-anchor="middle" x="240" y="30">
x (radians)
</text>
</g>
<g>
<g>
<line stroke="black" stroke-width="1" x1="0" x2="-10" y1="-0" y2="-0"/>
<line stroke="black" stroke-width="1" x1="0" x2="-10" y1="-84.33382585391148" y2="-84.33382585391148"/>
<line stroke="black" stroke-width="1" x1="0" x2="-10" y1="-168.66765170782296" y2="-168.66765170782296"/>
<line stroke="black" stroke-width="1" x1="0" x2="-10" y1="-253.00147756173442" y2="-253.00147756173442"/>
<line stroke="black" stroke-width="1" x1="0" x2="-10" y1="-337.3353034156459" y2="-337.3353034156459"/>
</g>
<line stroke="black" stroke-width="1" x1="0" x2="0" y1="0" y2="-340"/>
<g>
<text dominant-baseline="middle" font-size="12" text-anchor="end" x="-15" y="-0">
-1
</text>
<text dominant-baseline="middle" font-size="12" text-anchor="end" x="-15" y="-84.33382585391148">
-0.5
</text>
<text dominant-baseline="middle" font-size="12" text-anchor="end" x="-15" y="-168.66765170782296">
0
</text>
<text dominant-baseline="middle" font-size="12" text-anchor="end" x="-15" y="-253.00147756173442">
0.5
</text>
<text dominant-baseline="middle" font-size="12" text-anchor="end" x="-15" y="-337.3353034156459">
1
</text>
</g>
<text font-size="12" text-anchor="middle" transform="rotate(-90 -48 -170)" x="-48" y="-182">
y = cos(x)
</text>
</g>
</g>
</svg>