<svg viewBox="0 0 600 400" xmlns="http://www.w3.org/2000/svg">
<g transform="translate(72, 364)">
<g>
<g>
<path d="M0,-336.4656 L0,-336.4656 L4.8,-336.13364 L9.6,-335.13904 L14.4,-333.48575 L19.2,-331.18027 L24,-328.23172 L28.8,-324.6517 L33.6,-320.4544 L38.4,-315.65634 L43.2,-310.27646 L48,-304.336 L52.8,-297.8584 L57.6,-290.86923 L62.4,-283.3961 L67.2,-275.46844 L72,-267.11755 L76.8,-258.37646 L81.6,-249.27957 L86.4,-239.86285 L91.2,-230.16344 L96,-220.2196 L100.8,-210.0706 L105.6,-199.75648 L110.4,-189.31796 L115.2,-178.79623 L120,-168.2328 L124.8,-157.66939 L129.6,-147.14764 L134.4,-136.70912 L139.2,-126.39501 L144,-116.24601 L148.8,-106.30218 L153.6,-96.60276 L158.4,-87.186035 L163.2,-78.08916 L168,-69.348045 L172.8,-60.99718 L177.6,-53.069527 L182.4,-45.596367 L187.2,-38.6072 L192,-32.12961 L196.8,-26.18915 L201.6,-20.809275 L206.4,-16.011211 L211.2,-11.813899 L216,-8.2339 L220.8,-5.285343 L225.6,-2.9798656 L230.4,-1.326566 L235.2,-0.33196902 L240,-0 L244.8,-0.33196902 L249.6,-1.326566 L254.4,-2.9798656 L259.2,-5.285343 L264,-8.2339 L268.8,-11.813899 L273.6,-16.011211 L278.4,-20.809275 L283.2,-26.18915 L288,-32.12961 L292.8,-38.6072 L297.6,-45.596367 L302.4,-53.069527 L307.2,-60.99718 L312,-69.348045 L316.8,-78.08916 L321.6,-87.186035 L326.4,-96.60276 L331.2,-106.30218 L336,-116.24601 L340.8,-126.39501 L345.6,-136.70912 L350.4,-147.14764 L355.2,-157.66939 L360,-168.2328 L364.8,-178.79623 L369.6,-189.31796 L374.4,-199.75648 L379.2,-210.0706 L384,-220.2196 L388.8,-230.16344 L393.6,-239.86285 L398.4,-249.27957 L403.2,-258.37646 L408,-267.11755 L412.8,-275.46844 L417.6,-283.3961 L422.4,-290.86923 L427.2,-297.8584 L432,-304.336 L436.8,-310.27646 L441.6,-315.65634 L446.4,-320.4544 L451.2,-324.6517 L456,-328.23172 L460.8,-331.18027 L465.6,-333.48575 L470.4,-335.13904 L475.2,-336.13364" fill="none" stroke="blue" stroke-linejoin="round" stroke-width="2"/>
</g>
</g>
<g transform="translate(380, -340)">
<text font-size="12" text-anchor="start" x="0" y="0">
Ground Truth
</text>
<line stroke="blue" stroke-width="2" x1="-10" x2="-3" y1="-4" y2="-4"/>
</g>
<g>
<g>
<path d="M0,-340 L0,-340 L4.848485,-334.6163 L9.69697,-339.46194 L14.545455,-337.8532 L19.39394,-333.4132 L24.242424,-328.24588 L29.09091,-322.96042 L33.939392,-317.59732 L38.78788,-312.0672 L43.636364,-306.28134 L48.484848,-300.1806 L53.333332,-293.73096 L58.18182,-286.91437 L63.030304,-279.72186 L67.878784,-272.14984 L72.72727,-264.19858 L77.57576,-255.87192 L82.42424,-247.1778 L87.27273,-238.12862 L92.121216,-228.74174 L96.969696,-219.03995 L101.818184,-209.05159 L106.666664,-198.81065 L111.51515,-188.35667 L116.36364,-177.73433 L121.21212,-166.99294 L126.06061,-156.18568 L130.90909,-145.36873 L135.75757,-134.6002 L140.60606,-123.93908 L145.45454,-113.44404 L150.30302,-103.17246 L155.15152,-93.179405 L160,-83.516846 L164.84848,-74.23297 L169.69698,-65.37181 L174.54546,-56.97293 L179.39394,-49.071365 L184.24243,-41.697685 L189.09091,-34.87817 L193.93939,-28.63508 L198.78787,-22.986961 L203.63637,-17.948982 L208.48485,-13.533281 L213.33333,-9.749288 L218.18182,-6.6040206 L223.0303,-4.102361 L227.87878,-2.247275 L232.72728,-1.0400082 L237.57576,-0.48023435 L242.42424,-0.5661718 L247.27272,-1.2946632 L252.12122,-2.6612241 L256.9697,-4.6600637 L261.81818,-7.2840805 L266.66666,-10.524832 L271.51514,-14.372484 L276.36365,-18.815744 L281.21213,-23.841766 L286.0606,-29.436049 L290.9091,-35.582306 L295.75757,-42.262333 L300.60605,-49.45585 L305.45456,-57.14034 L310.30304,-65.2909 L315.15152,-73.880066 L320,-82.87767 L324.84848,-92.25074 L329.69696,-101.96339 L334.54544,-111.97679 L339.39395,-122.249245 L344.24243,-132.73622 L349.0909,-143.39064 L353.9394,-154.16312 L358.78787,-165.00238 L363.63635,-175.85577 L368.48486,-186.66988 L373.33334,-197.39114 L378.18182,-207.96664 L383.0303,-218.34486 L387.87878,-228.47644 L392.72726,-238.31491 L397.57574,-247.81744 L402.42426,-256.94537 L407.27274,-265.66473 L412.12122,-273.94662 L416.9697,-281.76743 L421.81818,-289.10892 L426.66666,-295.95813 L431.51514,-302.30734 L436.36365,-308.1536 L441.21213,-313.4985 L446.0606,-318.34772 L450.9091,-322.71048 L455.75757,-326.5991 L460.60605,-330.02847 L465.45456,-333.01553 L470.30304,-335.57883 L475.15152,-337.73807 L480,-339.51376" fill="none" stroke="red" stroke-linejoin="round" stroke-width="2"/>
</g>
</g>
<g transform="translate(380, -322)">
<text font-size="12" text-anchor="start" x="0" y="0">
Prediction
</text>
<line stroke="red" stroke-width="2" x1="-10" x2="-3" y1="-4" y2="-4"/>
</g>
<g>
<g>
<line stroke="black" stroke-width="1" x1="0" x2="0" y1="0" y2="10"/>
<line stroke="black" stroke-width="1" x1="152.78874536821954" x2="152.78874536821954" y1="0" y2="10"/>
<line stroke="black" stroke-width="1" x1="305.5774907364391" x2="305.5774907364391" y1="0" y2="10"/>
<line stroke="black" stroke-width="1" x1="458.3662361046586" x2="458.3662361046586" y1="0" y2="10"/>
</g>
<line stroke="black" stroke-width="1" x1="0" x2="480" y1="0" y2="0"/>
<g>
<text font-size="12" text-anchor="middle" x="0" y="20">
0
</text>
<text font-size="12" text-anchor="middle" x="152.78874536821954" y="20">
2
</text>
<text font-size="12" text-anchor="middle" x="305.5774907364391" y="20">
4
</text>
<text font-size="12" text-anchor="middle" x="458.3662361046586" y="20">
6
</text>
</g>
<text font-size="12" text-anchor="middle" x="240" y="30">
x (radians)
</text>
</g>
<g>
<g>
<line stroke="black" stroke-width="1" x1="0" x2="-10" y1="-0" y2="-0"/>
<line stroke="black" stroke-width="1" x1="0" x2="-10" y1="-84.11640310494502" y2="-84.11640310494502"/>
<line stroke="black" stroke-width="1" x1="0" x2="-10" y1="-168.23280620989004" y2="-168.23280620989004"/>
<line stroke="black" stroke-width="1" x1="0" x2="-10" y1="-252.34920931483506" y2="-252.34920931483506"/>
<line stroke="black" stroke-width="1" x1="0" x2="-10" y1="-336.4656124197801" y2="-336.4656124197801"/>
</g>
<line stroke="black" stroke-width="1" x1="0" x2="0" y1="0" y2="-340"/>
<g>
<text dominant-baseline="middle" font-size="12" text-anchor="end" x="-15" y="-0">
-1
</text>
<text dominant-baseline="middle" font-size="12" text-anchor="end" x="-15" y="-84.11640310494502">
-0.5
</text>
<text dominant-baseline="middle" font-size="12" text-anchor="end" x="-15" y="-168.23280620989004">
0
</text>
<text dominant-baseline="middle" font-size="12" text-anchor="end" x="-15" y="-252.34920931483506">
0.5
</text>
<text dominant-baseline="middle" font-size="12" text-anchor="end" x="-15" y="-336.4656124197801">
1
</text>
</g>
<text font-size="12" text-anchor="middle" transform="rotate(-90 -48 -170)" x="-48" y="-182">
y = cos(x)
</text>
</g>
</g>
</svg>