<svg viewBox="0 0 600 400" xmlns="http://www.w3.org/2000/svg">
<g transform="translate(72, 364)">
<g>
<g>
<path d="M0,-334.68256 L0,-334.68256 L4.8,-334.35236 L9.6,-333.36304 L14.4,-331.71848 L19.2,-329.42523 L24,-326.49228 L28.8,-322.93127 L33.6,-318.7562 L38.4,-313.98355 L43.2,-308.6322 L48,-302.7232 L52.8,-296.27994 L57.6,-289.32782 L62.4,-281.89426 L67.2,-274.00864 L72,-265.70203 L76.8,-257.00723 L81.6,-247.95856 L86.4,-238.59174 L91.2,-228.94371 L96,-219.05258 L100.8,-208.95737 L105.6,-198.6979 L110.4,-188.3147 L115.2,-177.84872 L120,-167.34128 L124.8,-156.83383 L129.6,-146.36786 L134.4,-135.98465 L139.2,-125.7252 L144,-115.62998 L148.8,-105.738846 L153.6,-96.09083 L158.4,-86.72401 L163.2,-77.67534 L168,-68.980545 L172.8,-60.673935 L177.6,-52.788292 L182.4,-45.354736 L187.2,-38.402607 L192,-31.959341 L196.8,-26.050364 L201.6,-20.698997 L206.4,-15.926363 L211.2,-11.751292 L216,-8.190265 L220.8,-5.257334 L225.6,-2.9640741 L230.4,-1.319536 L235.2,-0.3302098 L240,-0 L244.8,-0.3302098 L249.6,-1.319536 L254.4,-2.9640741 L259.2,-5.257334 L264,-8.190265 L268.8,-11.751292 L273.6,-15.926363 L278.4,-20.698997 L283.2,-26.050364 L288,-31.959341 L292.8,-38.402607 L297.6,-45.354736 L302.4,-52.788292 L307.2,-60.673935 L312,-68.980545 L316.8,-77.67534 L321.6,-86.72401 L326.4,-96.09083 L331.2,-105.738846 L336,-115.62998 L340.8,-125.7252 L345.6,-135.98465 L350.4,-146.36786 L355.2,-156.83383 L360,-167.34128 L364.8,-177.84872 L369.6,-188.3147 L374.4,-198.6979 L379.2,-208.95737 L384,-219.05258 L388.8,-228.94371 L393.6,-238.59174 L398.4,-247.95856 L403.2,-257.00723 L408,-265.70203 L412.8,-274.00864 L417.6,-281.89426 L422.4,-289.32782 L427.2,-296.27994 L432,-302.7232 L436.8,-308.6322 L441.6,-313.98355 L446.4,-318.7562 L451.2,-322.93127 L456,-326.49228 L460.8,-329.42523 L465.6,-331.71848 L470.4,-333.36304 L475.2,-334.35236" fill="none" stroke="blue" stroke-linejoin="round" stroke-width="2"/>
</g>
</g>
<g transform="translate(380, -340)">
<text font-size="12" text-anchor="start" x="0" y="0">
Ground Truth
</text>
<line stroke="blue" stroke-width="2" x1="-10" x2="-3" y1="-4" y2="-4"/>
</g>
<g>
<g>
<path d="M0,-336.78604 L0,-336.78604 L4.848485,-337.22504 L9.69697,-333.04727 L14.545455,-331.8493 L19.39394,-330.01175 L24.242424,-327.08688 L29.09091,-323.2643 L33.939392,-318.69235 L38.78788,-313.49298 L43.636364,-307.75226 L48.484848,-301.5291 L53.333332,-294.8639 L58.18182,-287.7845 L63.030304,-280.31088 L67.878784,-272.45862 L72.72727,-264.24124 L77.57576,-255.67218 L82.42424,-246.7663 L87.27273,-237.54082 L92.121216,-228.01627 L96.969696,-218.21696 L101.818184,-208.17148 L106.666664,-197.91272 L111.51515,-187.47801 L116.36364,-176.90883 L121.21212,-166.25043 L126.06061,-155.55139 L130.90909,-144.86285 L135.75757,-134.23776 L140.60606,-123.73003 L145.45454,-113.39358 L150.30302,-103.28152 L155.15152,-93.44528 L160,-83.93384 L164.84848,-74.7931 L169.69698,-66.06539 L174.54546,-57.789093 L179.39394,-49.998466 L184.24243,-42.723545 L189.09091,-35.990223 L193.93939,-29.820408 L198.78787,-24.232275 L203.63637,-19.240572 L208.48485,-14.856965 L213.33333,-11.090397 L218.18182,-7.9474497 L223.0303,-5.432679 L227.87878,-3.5489297 L232.72728,-2.2976024 L237.57576,-1.6788838 L242.42424,-1.6919214 L247.27272,-2.334948 L252.12122,-3.605353 L256.9697,-5.499698 L261.81818,-8.013681 L266.66666,-11.142046 L271.51514,-14.878443 L276.36365,-19.215239 L281.21213,-24.143282 L286.0606,-29.65164 L290.9091,-35.727283 L295.75757,-42.35476 L300.60605,-49.515865 L305.45456,-57.189285 L310.30304,-65.35031 L315.15152,-73.97053 L320,-83.01763 L324.84848,-92.45528 L329.69696,-102.24308 L334.54544,-112.33669 L339.39395,-122.688065 L344.24243,-133.24585 L349.0909,-143.95593 L353.9394,-154.76213 L358.78787,-165.60701 L363.63635,-176.43272 L368.48486,-187.1821 L373.33334,-197.79945 L378.18182,-208.23166 L383.0303,-218.42894 L387.87878,-228.34566 L392.72726,-237.94095 L397.57574,-247.17918 L402.42426,-256.03027 L407.27274,-264.46985 L412.12122,-272.4792 L416.9697,-280.04523 L421.81818,-287.1602 L426.66666,-293.8212 L431.51514,-300.03012 L436.36365,-305.79288 L441.21213,-311.11908 L446.0606,-316.02155 L450.9091,-320.51575 L455.75757,-324.61945 L460.60605,-328.3521 L465.45456,-331.73456 L470.30304,-334.78848 L475.15152,-337.53616 L480,-340" fill="none" stroke="red" stroke-linejoin="round" stroke-width="2"/>
</g>
</g>
<g transform="translate(380, -322)">
<text font-size="12" text-anchor="start" x="0" y="0">
Prediction
</text>
<line stroke="red" stroke-width="2" x1="-10" x2="-3" y1="-4" y2="-4"/>
</g>
<g>
<g>
<line stroke="black" stroke-width="1" x1="0" x2="0" y1="0" y2="10"/>
<line stroke="black" stroke-width="1" x1="152.78874536821954" x2="152.78874536821954" y1="0" y2="10"/>
<line stroke="black" stroke-width="1" x1="305.5774907364391" x2="305.5774907364391" y1="0" y2="10"/>
<line stroke="black" stroke-width="1" x1="458.3662361046586" x2="458.3662361046586" y1="0" y2="10"/>
</g>
<line stroke="black" stroke-width="1" x1="0" x2="480" y1="0" y2="0"/>
<g>
<text font-size="12" text-anchor="middle" x="0" y="20">
0
</text>
<text font-size="12" text-anchor="middle" x="152.78874536821954" y="20">
2
</text>
<text font-size="12" text-anchor="middle" x="305.5774907364391" y="20">
4
</text>
<text font-size="12" text-anchor="middle" x="458.3662361046586" y="20">
6
</text>
</g>
<text font-size="12" text-anchor="middle" x="240" y="30">
x (radians)
</text>
</g>
<g>
<g>
<line stroke="black" stroke-width="1" x1="0" x2="-10" y1="-0" y2="-0"/>
<line stroke="black" stroke-width="1" x1="0" x2="-10" y1="-83.67063958248704" y2="-83.67063958248704"/>
<line stroke="black" stroke-width="1" x1="0" x2="-10" y1="-167.34127916497408" y2="-167.34127916497408"/>
<line stroke="black" stroke-width="1" x1="0" x2="-10" y1="-251.01191874746112" y2="-251.01191874746112"/>
<line stroke="black" stroke-width="1" x1="0" x2="-10" y1="-334.68255832994817" y2="-334.68255832994817"/>
</g>
<line stroke="black" stroke-width="1" x1="0" x2="0" y1="0" y2="-340"/>
<g>
<text dominant-baseline="middle" font-size="12" text-anchor="end" x="-15" y="-0">
-1
</text>
<text dominant-baseline="middle" font-size="12" text-anchor="end" x="-15" y="-83.67063958248704">
-0.5
</text>
<text dominant-baseline="middle" font-size="12" text-anchor="end" x="-15" y="-167.34127916497408">
0
</text>
<text dominant-baseline="middle" font-size="12" text-anchor="end" x="-15" y="-251.01191874746112">
0.5
</text>
<text dominant-baseline="middle" font-size="12" text-anchor="end" x="-15" y="-334.68255832994817">
1
</text>
</g>
<text font-size="12" text-anchor="middle" transform="rotate(-90 -48 -170)" x="-48" y="-182">
y = cos(x)
</text>
</g>
</g>
</svg>